<svg xmlns="http://www.w3.org/2000/svg" viewBox="0 0 100 100" width="300" height="300">
  <rect width="100%" height="100%" fill="#0D0E11"/>
  <circle cx="50" cy="50" r="40" stroke="#D99B38" fill="none" opacity="0.3" stroke-dasharray="3 3"/>
  <circle cx="50" cy="50" r="24" stroke="#D99B38" fill="none" opacity="0.6"/>
  <circle cx="50" cy="50" r="10" fill="#D99B38"/>
  <path d="M 0 0 Q 25 25 50 0 Q 75 25 100 0" stroke="#D99B38" fill="none" opacity="0.4"/>
  <path d="M 0 100 Q 25 75 50 100 Q 75 75 100 100" stroke="#D99B38" fill="none" opacity="0.4"/>
  <path d="M 0 0 Q 25 25 0 50 Q 25 75 0 100" stroke="#D99B38" fill="none" opacity="0.4"/>
  <path d="M 100 0 Q 75 25 100 50 Q 75 75 100 100" stroke="#D99B38" fill="none" opacity="0.4"/>
  <path d="M 50 10 C 60 30 60 40 50 50 C 40 40 40 30 50 10 Z" fill="#C06B3E" opacity="0.75"/>
  <path d="M 50 90 C 60 70 60 60 50 50 C 40 60 40 70 50 90 Z" fill="#C06B3E" opacity="0.75"/>
  <path d="M 10 50 C 30 60 40 60 50 50 C 40 40 30 40 10 50 Z" fill="#C06B3E" opacity="0.75"/>
  <path d="M 90 50 C 70 60 60 60 50 50 C 60 40 70 40 90 50 Z" fill="#C06B3E" opacity="0.75"/>
</svg>